# xmcd
#
# Track frame offsets:
#	150
#	31228
#	51407
#	101284
#	177740
#	202882
#	233737
#	252429
#	288390
#	310848
#
# Disc length: 4595 seconds
#
# Revision: 1
# Processed by: cddbd v1.5.2PL0 Copyright (c) Steve Scherf et al.
# Submitted via: audiograbber 1.83.01
#
DISCID=8811f10a
DTITLE=Grateful Dead - 92-05-30 Sam Boyd Silver Bowl, Las Vegas NV
DYEAR=1900
DGENRE=
TTITLE0=Truckin
TTITLE1=Smokestack Lightning
TTITLE2=Terrapin Station
TTITLE3=Jam > Drums > Space
TTITLE4=Spanish Jam
TTITLE5=Space > Spanish Jam
TTITLE6=I Need A Miracle
TTITLE7=Standing On The Moon
TTITLE8=One More Saturday Night
TTITLE9=Knockin On Heaven's Door
EXTD=
EXTT0=
EXTT1=
EXTT2=
EXTT3=
EXTT4=
EXTT5=
EXTT6=
EXTT7=
EXTT8=
EXTT9=
PLAYORDER=
